<?xml version="1.0" encoding="iso-8859-1"?>
<!-- Uploaded to: SVG Repo, www.svgrepo.com, Generator: SVG Repo Mixer Tools -->
<svg height="800px" width="800px" version="1.1" id="Layer_1" xmlns="http://www.w3.org/2000/svg" xmlns:xlink="http://www.w3.org/1999/xlink" 
	 viewBox="0 0 392.663 392.663" xml:space="preserve">
<path style="fill:#FFC10D;" d="M275.297,56.372c0-19.071-15.515-34.586-34.586-34.586c-16.097,0-29.996,10.925-33.681,26.505
	c-2.392,9.762-17.131,12.735-21.269,0c-3.685-15.58-17.519-26.505-33.681-26.505c-19.071,0-34.651,15.515-34.651,34.586
	c0,39.305,52.299,84.558,78.869,103.37C222.998,140.929,275.297,95.806,275.297,56.372z"/>
<path style="fill:#194F82;" d="M240.711,0c-17.778,0-33.875,8.21-44.283,21.333C186.02,8.21,169.923,0,152.145,0
	c-31.16,0-56.436,25.341-56.436,56.436c0,63.16,90.893,123.152,94.707,125.737c3.62,2.263,8.598,2.133,11.895,0
	c3.879-2.521,94.707-62.578,94.707-125.737C297.082,25.341,271.87,0,240.711,0z M117.559,56.372
	c0-19.071,15.515-34.586,34.651-34.586c16.097,0,29.996,10.925,33.681,26.505c4.073,12.735,18.877,9.762,21.269,0
	c3.685-15.58,17.519-26.505,33.681-26.505c19.071,0,34.586,15.515,34.586,34.586c0,39.305-52.299,84.558-78.869,103.37
	C169.858,140.929,117.559,95.806,117.559,56.372z"/>
<path style="fill:#56ACE0;" d="M368.064,270.158c1.875-1.939,2.844-4.396,2.844-7.111v-135.37c0-9.956-8.145-18.101-18.101-18.101
	s-18.101,8.145-18.101,18.101v53.139c6.465,6.982,10.537,16.291,10.537,26.505v44.671c0,6.012-4.848,10.925-10.925,10.925
	c-6.012,0-10.925-4.848-10.925-10.925v-44.671c0-9.374-7.628-17.002-17.002-17.002c-9.374,0-17.002,7.628-17.002,17.002v43.378
	c0,2.715-1.034,5.301-2.844,7.37l-38.788,42.602c-7.046,7.758-10.925,17.778-10.925,28.25v31.547
	c0,5.624,4.655,10.279,10.279,10.279h48.937c5.624,0,10.279-4.655,10.279-10.279v-12.929c0-8.275,3.168-16.162,8.857-22.174
	L368.064,270.158z"/>
<path style="fill:#194F82;" d="M352.808,87.79c-22.044,0-39.887,17.907-39.887,39.887v41.309c-2.069-0.388-4.331-0.517-6.594-0.517
	c-21.398,0-38.788,17.39-38.788,38.788v39.111l-35.943,39.564c-10.667,11.766-16.614,27.022-16.614,42.99v31.547
	c0,17.713,14.352,32.065,32.065,32.065h49.002c17.713,0,32.065-14.352,32.065-32.065v-12.929c0-2.65,1.034-5.172,2.844-7.111
	l52.752-55.337c5.689-6.012,8.857-13.834,8.857-22.174v-135.24C392.695,105.632,374.788,87.79,352.808,87.79z M306.456,360.469
	c0,5.624-4.655,10.279-10.279,10.279h-49.002c-5.624,0-10.279-4.655-10.279-10.279v-31.612c0-10.537,3.879-20.558,10.925-28.25
	l38.723-42.602c1.875-2.004,2.844-4.655,2.844-7.37v-43.378c0-9.374,7.628-17.002,17.002-17.002s17.002,7.628,17.002,17.002v44.671
	c0,6.012,4.848,10.925,10.925,10.925c6.012,0,10.925-4.848,10.925-10.925v-44.671c0-10.279-4.008-19.523-10.537-26.505v-53.01
	c0-9.956,8.145-18.101,18.101-18.101s18.101,8.145,18.101,18.101v135.37c0,2.651-1.034,5.172-2.844,7.111l-52.881,55.337
	c-5.689,6.012-8.857,13.834-8.857,22.174v12.735H306.456z"/>
<path style="fill:#FFFFFF;" d="M106.311,258.004c-1.875-2.004-2.844-4.655-2.844-7.37v-43.378c0-9.374-7.628-17.002-17.002-17.002
	s-17.002,7.628-17.002,17.002v44.671c0,6.012-4.848,10.925-10.925,10.925s-10.925-4.849-10.925-10.925v-44.671
	c0-10.279,4.008-19.523,10.537-26.505v-53.01c0-9.956-8.145-18.101-18.101-18.101s-18.101,8.145-18.101,18.101v135.37
	c0,2.651,1.034,5.172,2.844,7.111l52.752,55.337c5.689,6.012,8.857,13.834,8.857,22.174v12.929c0,5.624,4.655,10.279,10.279,10.279
	h49.002c5.624,0,10.279-4.655,10.279-10.279V329.05c0-10.537-3.879-20.558-10.925-28.251L106.311,258.004z"/>
<path style="fill:#194F82;" d="M161.196,285.931l-35.879-39.499v-39.111c0-21.398-17.39-38.788-38.788-38.788
	c-2.263,0-4.396,0.129-6.594,0.517v-41.309c0-22.044-17.907-39.887-39.887-39.887C18.004,87.79,0.097,105.632,0.097,127.677v135.37
	c0,8.275,3.168,16.162,8.857,22.174l52.752,55.337c1.875,1.939,2.844,4.396,2.844,7.111v12.929
	c0,17.713,14.352,32.065,32.065,32.065h49.002c17.713,0,32.065-14.352,32.065-32.065v-31.612
	C177.81,312.954,171.862,297.697,161.196,285.931z M155.959,360.469c0,5.624-4.655,10.279-10.279,10.279H96.743
	c-5.624,0-10.279-4.655-10.279-10.279v-12.929c0-8.275-3.168-16.162-8.857-22.174l-52.752-55.337
	c-1.875-1.939-2.844-4.396-2.844-7.111v-135.24c0-9.956,8.145-18.101,18.101-18.101s18.101,8.145,18.101,18.101v53.139
	c-6.465,6.982-10.537,16.291-10.537,26.505v44.671c0,6.012,4.848,10.925,10.925,10.925s10.925-4.848,10.925-10.925v-44.671
	c0-9.374,7.628-17.002,17.002-17.002s17.002,7.628,17.002,17.002v43.378c0,2.715,1.034,5.301,2.844,7.37l38.723,42.602
	c7.046,7.758,10.925,17.778,10.925,28.25v31.547H155.959z"/>
</svg>