<svg width="0" height="0" class="hidden">
  <symbol xmlns="http://www.w3.org/2000/svg" viewBox="0 0 9.999 5.479" id="ArrowDown">
    <path id="ArrowDown" d="M333.518-544.8l-4.177-4.178a.673.673,0,0,1-.136-.193.532.532,0,0,1-.05-.228.606.606,0,0,1,.165-.424.56.56,0,0,1,.434-.18h8.8a.56.56,0,0,1,.434.181.611.611,0,0,1,.165.423,1.85,1.85,0,0,1-.186.421l-4.177,4.177a.962.962,0,0,1-.3.21.851.851,0,0,1-.338.066.851.851,0,0,1-.339-.066A.963.963,0,0,1,333.518-544.8Z" transform="translate(-329.155 549.999)" fill="#072635"></path>
  </symbol>
  <symbol xmlns="http://www.w3.org/2000/svg" viewBox="0 0 10 5.479" id="ArrowUp">
    <path id="ArrowUp" d="M4.364,5.2.186,1.024A.673.673,0,0,1,.05.832.532.532,0,0,1,0,.6.606.606,0,0,1,.165.18.56.56,0,0,1,.6,0H9.4a.56.56,0,0,1,.434.181A.611.611,0,0,1,10,.6a1.85,1.85,0,0,1-.186.421L5.636,5.2a.962.962,0,0,1-.3.21.9.9,0,0,1-.677,0A.963.963,0,0,1,4.364,5.2Z" transform="translate(10 5.479) rotate(180)" fill="#072635"></path>
  </symbol>
  <symbol xmlns="http://www.w3.org/2000/svg" viewBox="0 0 42 42" id="BirthIcon">
    <g id="BirthIcon" transform="translate(-1235 -471)">
      <circle id="Ellipse_9" cx="21" cy="21" r="21" transform="translate(1235 471)" fill="#f6f7f8"></circle>
      <path id="calendar_today_FILL0_wght300_GRAD0_opsz24" d="M141.892-844.614a1.826,1.826,0,0,1-1.342-.549,1.826,1.826,0,0,1-.549-1.342v-14a1.826,1.826,0,0,1,.549-1.342,1.826,1.826,0,0,1,1.342-.549h1.449v-1.408a.78.78,0,0,1,.23-.574.78.78,0,0,1,.574-.23.779.779,0,0,1,.574.23.779.779,0,0,1,.23.574v1.408h7.928v-1.429a.76.76,0,0,1,.225-.559.759.759,0,0,1,.559-.225.759.759,0,0,1,.559.225.76.76,0,0,1,.225.559v1.429H155.9a1.826,1.826,0,0,1,1.342.549,1.826,1.826,0,0,1,.549,1.342v14a1.826,1.826,0,0,1-.549,1.342,1.826,1.826,0,0,1-1.342.549Zm0-1.569h14a.308.308,0,0,0,.221-.1.308.308,0,0,0,.1-.221v-9.819H141.57v9.819a.308.308,0,0,0,.1.221A.308.308,0,0,0,141.892-846.183Zm-.322-11.71h14.648v-2.616a.308.308,0,0,0-.1-.221.308.308,0,0,0-.221-.1h-14a.308.308,0,0,0-.221.1.308.308,0,0,0-.1.221Zm0,0v0Z" transform="translate(1106.999 1346.614)" fill="#072635"></path>
    </g>
  </symbol>
  <symbol xmlns="http://www.w3.org/2000/svg" viewBox="0 0 18.695 17" id="chat_bubble_FILL0_wght300_GRAD0_opsz24">
    <path id="chat_bubble_FILL0_wght300_GRAD0_opsz24" d="M103.483-845.24l-1.97,1.97a.815.815,0,0,1-.966.19.829.829,0,0,1-.546-.828V-858.22a1.717,1.717,0,0,1,.517-1.262A1.717,1.717,0,0,1,101.78-860h15.137a1.717,1.717,0,0,1,1.262.517,1.717,1.717,0,0,1,.517,1.262v11.2a1.717,1.717,0,0,1-.517,1.262,1.717,1.717,0,0,1-1.262.517Zm-.628-1.476h14.062a.29.29,0,0,0,.208-.095.29.29,0,0,0,.095-.208v-11.2a.289.289,0,0,0-.095-.208.29.29,0,0,0-.208-.095H101.78a.289.289,0,0,0-.208.095.289.289,0,0,0-.095.208v12.867Zm-1.378,0v0Z" transform="translate(-100.001 859.999)" fill="#072635"></path>
  </symbol>
  <symbol xmlns="http://www.w3.org/2000/svg" viewBox="0 0 21.533 17" id="credit_card_FILL0_wght300_GRAD0_opsz24">
    <path id="credit_card_FILL0_wght300_GRAD0_opsz24" d="M121.534-777.95v12.9a1.978,1.978,0,0,1-.6,1.454,1.978,1.978,0,0,1-1.454.6H102.05a1.978,1.978,0,0,1-1.454-.6,1.978,1.978,0,0,1-.6-1.454v-12.9a1.978,1.978,0,0,1,.6-1.454A1.978,1.978,0,0,1,102.05-780h17.436a1.978,1.978,0,0,1,1.454.595A1.978,1.978,0,0,1,121.534-777.95ZM101.7-775.575h18.133v-2.376a.333.333,0,0,0-.109-.24.333.333,0,0,0-.24-.109H102.05a.333.333,0,0,0-.24.109.333.333,0,0,0-.109.24Zm0,3.618v6.909a.333.333,0,0,0,.109.24.333.333,0,0,0,.24.109h17.436a.333.333,0,0,0,.24-.109.333.333,0,0,0,.109-.24v-6.909Zm0,7.258v0Z" transform="translate(-100.001 779.999)" fill="#072635"></path>
  </symbol>
  <symbol xmlns="http://www.w3.org/2000/svg" viewBox="0 0 20 20" id="download_FILL0_wght300_GRAD0_opsz24 (1)">
    <path id="download_FILL0_wght300_GRAD0_opsz24_1_" d="M190-765.45a1.282,1.282,0,0,1-.449-.077,1.106,1.106,0,0,1-.395-.264l-4.146-4.146a.94.94,0,0,1-.294-.7,1.025,1.025,0,0,1,.294-.709,1.019,1.019,0,0,1,.713-.321.944.944,0,0,1,.713.3L189-768.8V-779a.968.968,0,0,1,.287-.713A.968.968,0,0,1,190-780a.968.968,0,0,1,.713.287A.968.968,0,0,1,191-779v10.2l2.564-2.564a.952.952,0,0,1,.706-.294,1,1,0,0,1,.719.314,1.044,1.044,0,0,1,.3.7.932.932,0,0,1-.3.7l-4.146,4.146a1.1,1.1,0,0,1-.395.264A1.282,1.282,0,0,1,190-765.45ZM182.411-760a2.327,2.327,0,0,1-1.71-.7,2.327,2.327,0,0,1-.7-1.71v-2.615a.968.968,0,0,1,.287-.713.968.968,0,0,1,.713-.287.968.968,0,0,1,.713.287.968.968,0,0,1,.287.713v2.615a.392.392,0,0,0,.128.282.392.392,0,0,0,.282.128h15.179a.392.392,0,0,0,.282-.128.392.392,0,0,0,.128-.282v-2.615a.968.968,0,0,1,.287-.713.968.968,0,0,1,.713-.287.968.968,0,0,1,.713.287.968.968,0,0,1,.287.713v2.615a2.327,2.327,0,0,1-.7,1.71,2.327,2.327,0,0,1-1.71.7Z" transform="translate(-180.001 779.999)"></path>
  </symbol>
  <symbol xmlns="http://www.w3.org/2000/svg" viewBox="0 0 10.646 6" id="expand_more_FILL0_wght300_GRAD0_opsz24">
    <path id="expand_more_FILL0_wght300_GRAD0_opsz24" d="M271.741-608.384a.958.958,0,0,1-.335-.057.827.827,0,0,1-.3-.2l-4.478-4.479a.722.722,0,0,1-.212-.52.7.7,0,0,1,.212-.53.715.715,0,0,1,.525-.217.715.715,0,0,1,.525.217l4.059,4.059,4.059-4.059a.722.722,0,0,1,.52-.212.7.7,0,0,1,.53.212.715.715,0,0,1,.217.525.715.715,0,0,1-.217.525l-4.478,4.479a.826.826,0,0,1-.3.2A.958.958,0,0,1,271.741-608.384Z" transform="translate(-266.42 614.384)"></path>
  </symbol>
  <symbol xmlns="http://www.w3.org/2000/svg" viewBox="0 0 42 42" id="FemaleIcon">
    <g id="FemaleIcon" transform="translate(-1235 -471)">
      <circle id="Ellipse_9" cx="21" cy="21" r="21" transform="translate(1235 471)" fill="#f6f7f8"></circle>
      <path id="female_FILL0_wght300_GRAD0_opsz24" d="M275.456-772.423H273.94a.88.88,0,0,1-.648-.261.88.88,0,0,1-.261-.648.879.879,0,0,1,.261-.648.88.88,0,0,1,.648-.261h1.515v-3.1a6.172,6.172,0,0,1-3.907-2.136,6.214,6.214,0,0,1-1.548-4.19,6.072,6.072,0,0,1,1.861-4.484,6.164,6.164,0,0,1,4.5-1.843,6.164,6.164,0,0,1,4.5,1.843,6.072,6.072,0,0,1,1.861,4.484,6.215,6.215,0,0,1-1.548,4.19,6.172,6.172,0,0,1-3.907,2.136v3.1h1.515a.879.879,0,0,1,.648.261.88.88,0,0,1,.261.648.879.879,0,0,1-.261.648.88.88,0,0,1-.648.261h-1.515v1.515a.879.879,0,0,1-.261.648.88.88,0,0,1-.648.261.879.879,0,0,1-.648-.261.88.88,0,0,1-.261-.648Zm.911-6.667a4.375,4.375,0,0,0,3.214-1.332,4.385,4.385,0,0,0,1.33-3.216,4.375,4.375,0,0,0-1.332-3.214,4.385,4.385,0,0,0-3.216-1.33,4.375,4.375,0,0,0-3.214,1.332,4.385,4.385,0,0,0-1.33,3.216,4.375,4.375,0,0,0,1.332,3.214A4.385,4.385,0,0,0,276.366-779.09Z" transform="translate(979.999 1271.999)" fill="#072635"></path>
    </g>
  </symbol>
  <symbol xmlns="http://www.w3.org/2000/svg" viewBox="0 0 23.733 17" id="group_FILL0_wght300_GRAD0_opsz24">
    <path id="group_FILL0_wght300_GRAD0_opsz24" d="M71.925-757.892a2.855,2.855,0,0,1,.464-1.6,3.165,3.165,0,0,1,1.24-1.1,17.938,17.938,0,0,1,3.335-1.251,14.514,14.514,0,0,1,3.685-.44,14.514,14.514,0,0,1,3.685.44,17.938,17.938,0,0,1,3.335,1.251,3.165,3.165,0,0,1,1.24,1.1,2.855,2.855,0,0,1,.464,1.6v.819a1.721,1.721,0,0,1-.516,1.235,1.677,1.677,0,0,1-1.251.532H73.692a1.7,1.7,0,0,1-1.251-.516,1.7,1.7,0,0,1-.516-1.252v-.819Zm21.966,2.586H91.249a3.637,3.637,0,0,0,.334-.852,3.69,3.69,0,0,0,.115-.915v-.962a4.528,4.528,0,0,0-.561-2.183A5.286,5.286,0,0,0,89.547-762a12.241,12.241,0,0,1,2.221.54,14.907,14.907,0,0,1,2.006.865,4.143,4.143,0,0,1,1.392,1.134,2.32,2.32,0,0,1,.491,1.425v.962a1.7,1.7,0,0,1-.516,1.252A1.7,1.7,0,0,1,93.891-755.306Zm-13.242-8.858a3.92,3.92,0,0,1-2.875-1.2,3.92,3.92,0,0,1-1.2-2.875,3.92,3.92,0,0,1,1.2-2.875,3.92,3.92,0,0,1,2.875-1.2,3.92,3.92,0,0,1,2.875,1.2,3.92,3.92,0,0,1,1.2,2.875,3.92,3.92,0,0,1-1.2,2.875A3.92,3.92,0,0,1,80.649-764.164Zm10.043-4.071a3.92,3.92,0,0,1-1.2,2.875,3.92,3.92,0,0,1-2.875,1.2,3.571,3.571,0,0,1-.5-.045,4.365,4.365,0,0,1-.5-.1,6.169,6.169,0,0,0,1.058-1.835,6.037,6.037,0,0,0,.37-2.094,5.864,5.864,0,0,0-.377-2.086,6.724,6.724,0,0,0-1.05-1.841,2.173,2.173,0,0,1,.5-.116,4.7,4.7,0,0,1,.5-.027,3.92,3.92,0,0,1,2.875,1.2A3.92,3.92,0,0,1,90.692-768.235ZM73.67-757.051H87.628v-.841a1.175,1.175,0,0,0-.182-.649,1.517,1.517,0,0,0-.578-.5,13.719,13.719,0,0,0-2.957-1.122,13.379,13.379,0,0,0-3.261-.381,13.379,13.379,0,0,0-3.261.381,13.719,13.719,0,0,0-2.957,1.122,1.517,1.517,0,0,0-.578.5,1.175,1.175,0,0,0-.182.649Zm6.979-8.858a2.24,2.24,0,0,0,1.643-.683,2.24,2.24,0,0,0,.683-1.643,2.24,2.24,0,0,0-.683-1.643,2.24,2.24,0,0,0-1.643-.683,2.24,2.24,0,0,0-1.643.683,2.24,2.24,0,0,0-.683,1.643,2.24,2.24,0,0,0,.683,1.643A2.24,2.24,0,0,0,80.649-765.909ZM80.649-757.051ZM80.649-768.235Z" transform="translate(-71.925 772.306)" fill="#072635"></path>
  </symbol>
  <symbol id="HeartBPM" xmlns="http://www.w3.org/2000/svg" xmlns:xlink="http://www.w3.org/1999/xlink" viewBox="0 0 96 96">
    <defs>
      <clipPath id="clip-path">
        <rect id="Rectangle_35" width="59.711" height="53.998" fill="none"></rect>
      </clipPath>
    </defs>
    <circle id="Ellipse_8" cx="48" cy="48" r="48" fill="#fff"></circle>
    <g id="Health" transform="translate(18.145 24.001)">
      <g id="Group_13" clip-path="url(#clip-path)">
        <path id="Path_16" d="M29.855,54,4.951,29.092a16.948,16.948,0,0,1-1.185-1.314l2.01-1.632a14.236,14.236,0,0,0,1,1.112L29.854,50.333,52.926,27.258a14.317,14.317,0,0,0,0-20.247l-.233-.235a14.318,14.318,0,0,0-20.248,0l-2.6,2.6-2.59-2.6A14.337,14.337,0,0,0,7,6.776l-.229.23a14.226,14.226,0,0,0-4.19,10.127H0A16.8,16.8,0,0,1,4.951,5.181l.23-.229a16.925,16.925,0,0,1,23.914,0l.761.761.761-.761a16.906,16.906,0,0,1,23.909,0h0l.233.234a16.906,16.906,0,0,1,0,23.908Z" transform="translate(0 0)" fill="#072635"></path>
        <path id="Path_17" d="M8.763,25.277A11.53,11.53,0,0,1,8.763,9l.227-.226a11.513,11.513,0,0,1,16.282,0h0l4.573,4.582,4.582-4.585a11.513,11.513,0,0,1,16.282,0l.212.214a11.509,11.509,0,0,1,.038,16.276l-.021.022L29.855,46.368Z" transform="translate(0 0)" fill="#f05b66"></path>
        <path id="Path_18" d="M20.131,30.786l-4.24-13.852-2.785,6.335L.028,23.161V20.573l11.389.108,4.91-11.17,4.466,14.594,2.241-4.154h17.6v2.588H24.578Z" transform="translate(0 0)" fill="#072635"></path>
      </g>
    </g>
  </symbol>
  <symbol xmlns="http://www.w3.org/2000/svg" viewBox="0 0 15.509 17" id="home_FILL0_wght300_GRAD0_opsz24">
    <path id="home_FILL0_wght300_GRAD0_opsz24" d="M181.552-782.242h3.46v-5.209a.9.9,0,0,1,.269-.666.9.9,0,0,1,.666-.269h3.619a.9.9,0,0,1,.666.269.9.9,0,0,1,.269.666v5.209h3.46v-9.146a.3.3,0,0,0-.035-.144.387.387,0,0,0-.094-.114l-5.885-4.424a.277.277,0,0,0-.189-.07.277.277,0,0,0-.189.07l-5.885,4.424a.387.387,0,0,0-.094.114.3.3,0,0,0-.035.144Zm-1.551,0v-9.146a1.856,1.856,0,0,1,.2-.841,1.792,1.792,0,0,1,.549-.654l5.885-4.434a1.8,1.8,0,0,1,1.12-.374,1.81,1.81,0,0,1,1.123.374l5.885,4.434a1.792,1.792,0,0,1,.549.654,1.856,1.856,0,0,1,.2.841v9.146a1.492,1.492,0,0,1-.458,1.093,1.492,1.492,0,0,1-1.093.458h-4.076a.9.9,0,0,1-.666-.269.9.9,0,0,1-.269-.666v-5.209h-2.386v5.209a.9.9,0,0,1-.269.666.9.9,0,0,1-.666.269h-4.076a1.492,1.492,0,0,1-1.093-.458A1.492,1.492,0,0,1,180-782.242ZM187.755-789.2Z" transform="translate(-180.001 797.691)" fill="#072635"></path>
  </symbol>
  <symbol xmlns="http://www.w3.org/2000/svg" viewBox="0 0 42 42" id="InsuranceIcon">
    <g id="InsuranceIcon" transform="translate(-1235 -471)">
      <circle id="Ellipse_9" cx="21" cy="21" r="21" transform="translate(1235 471)" fill="#f6f7f8"></circle>
      <path id="verified_user_FILL0_wght300_GRAD0_opsz24" d="M186.9-842.111l-1.7-1.7a.784.784,0,0,0-.558-.244.764.764,0,0,0-.569.244.786.786,0,0,0-.249.572.786.786,0,0,0,.249.572l2.153,2.17a.927.927,0,0,0,.677.29.927.927,0,0,0,.677-.29l4.432-4.432a.793.793,0,0,0,.244-.567.774.774,0,0,0-.244-.577.786.786,0,0,0-.572-.249.786.786,0,0,0-.572.249Zm1.123,8.882a1.986,1.986,0,0,1-.327-.027,1.811,1.811,0,0,1-.311-.08A10.471,10.471,0,0,1,182-837.6a11.865,11.865,0,0,1-2-6.611v-4.816a1.829,1.829,0,0,1,.352-1.1,2.01,2.01,0,0,1,.9-.708l6.087-2.273a1.993,1.993,0,0,1,.677-.123,1.993,1.993,0,0,1,.677.123l6.087,2.273a2.01,2.01,0,0,1,.9.708,1.829,1.829,0,0,1,.352,1.1v4.816a11.865,11.865,0,0,1-2,6.611,10.471,10.471,0,0,1-5.383,4.266,1.811,1.811,0,0,1-.311.08A1.986,1.986,0,0,1,188.022-833.229Zm0-1.573a8.7,8.7,0,0,0,4.6-3.529,10.157,10.157,0,0,0,1.818-5.882v-4.827a.319.319,0,0,0-.057-.185.341.341,0,0,0-.159-.123l-6.087-2.273a.3.3,0,0,0-.113-.021.3.3,0,0,0-.113.021l-6.087,2.273a.341.341,0,0,0-.159.123.319.319,0,0,0-.057.185v4.827a10.157,10.157,0,0,0,1.818,5.882A8.7,8.7,0,0,0,188.022-834.8ZM188.022-843.23Z" transform="translate(1067.999 1335.229)" fill="#072635"></path>
    </g>
  </symbol>
  <symbol xmlns="http://www.w3.org/2000/svg" viewBox="0 0 42 42" id="MaleIcon">
    <g id="MaleIcon" transform="translate(-1235 -471)">
      <circle id="Ellipse_9" cx="21" cy="21" r="21" transform="translate(1235 471)" fill="#f6f7f8"></circle>
      <path id="male_FILL0_wght300_GRAD0_opsz24" d="M190-788.833v4.963a.936.936,0,0,1-.278.69.937.937,0,0,1-.69.278.936.936,0,0,1-.689-.278.937.937,0,0,1-.278-.69v-2.8l-5.874,5.829a8.5,8.5,0,0,1,.991,1.94,6.281,6.281,0,0,1,.366,2.13,6.537,6.537,0,0,1-1.97,4.8,6.535,6.535,0,0,1-4.8,1.971,6.539,6.539,0,0,1-4.8-1.97,6.534,6.534,0,0,1-1.971-4.8,6.539,6.539,0,0,1,1.971-4.8,6.535,6.535,0,0,1,4.8-1.971,6.408,6.408,0,0,1,2.115.356,7.457,7.457,0,0,1,1.922,1l5.874-5.874h-2.814a.936.936,0,0,1-.69-.278.937.937,0,0,1-.278-.69.935.935,0,0,1,.278-.689.937.937,0,0,1,.69-.278h4.963a1.129,1.129,0,0,1,.831.335,1.128,1.128,0,0,1,.335.831Zm-13.228,7.221a4.658,4.658,0,0,0-3.421,1.418,4.667,4.667,0,0,0-1.416,3.423,4.658,4.658,0,0,0,1.418,3.421,4.667,4.667,0,0,0,3.423,1.416,4.658,4.658,0,0,0,3.421-1.418,4.668,4.668,0,0,0,1.416-3.423A4.658,4.658,0,0,0,180.2-780.2,4.667,4.667,0,0,0,176.773-781.612Z" transform="translate(1075.999 1271.999)" fill="#072635"></path>
    </g>
  </symbol>
  <symbol xmlns="http://www.w3.org/2000/svg" viewBox="0 0 18 3.714" id="more_horiz_FILL0_wght300_GRAD0_opsz24">
    <path id="more_horiz_FILL0_wght300_GRAD0_opsz24" d="M191.09-536.285a1.788,1.788,0,0,1-1.312-.546,1.788,1.788,0,0,1-.546-1.312,1.788,1.788,0,0,1,.546-1.312A1.788,1.788,0,0,1,191.09-540a1.788,1.788,0,0,1,1.312.546,1.788,1.788,0,0,1,.546,1.312,1.788,1.788,0,0,1-.546,1.312A1.788,1.788,0,0,1,191.09-536.285Zm7.143,0a1.788,1.788,0,0,1-1.312-.546,1.788,1.788,0,0,1-.546-1.312,1.788,1.788,0,0,1,.546-1.312,1.788,1.788,0,0,1,1.312-.546,1.788,1.788,0,0,1,1.312.546,1.788,1.788,0,0,1,.546,1.312,1.788,1.788,0,0,1-.546,1.312A1.788,1.788,0,0,1,198.233-536.285Zm7.143,0a1.788,1.788,0,0,1-1.312-.546,1.788,1.788,0,0,1-.546-1.312,1.788,1.788,0,0,1,.546-1.312,1.788,1.788,0,0,1,1.312-.546,1.788,1.788,0,0,1,1.312.546,1.788,1.788,0,0,1,.546,1.312,1.788,1.788,0,0,1-.546,1.312,1.788,1.788,0,0,1-1.312.546Z" transform="translate(-189.233 539.999)" fill="#072635"></path>
  </symbol>
  <symbol xmlns="http://www.w3.org/2000/svg" viewBox="0 0 3.714 18" id="more_vert_FILL0_wght300_GRAD0_opsz24">
    <path id="more_vert_FILL0_wght300_GRAD0_opsz24" d="M421.858-752.767a1.788,1.788,0,0,1-1.312-.546,1.788,1.788,0,0,1-.546-1.312,1.788,1.788,0,0,1,.546-1.312,1.788,1.788,0,0,1,1.312-.546,1.788,1.788,0,0,1,1.312.546,1.788,1.788,0,0,1,.546,1.312,1.788,1.788,0,0,1-.546,1.312A1.789,1.789,0,0,1,421.858-752.767Zm0-7.143a1.788,1.788,0,0,1-1.312-.546,1.788,1.788,0,0,1-.546-1.312,1.788,1.788,0,0,1,.546-1.312,1.788,1.788,0,0,1,1.312-.546,1.788,1.788,0,0,1,1.312.546,1.788,1.788,0,0,1,.546,1.312,1.788,1.788,0,0,1-.546,1.312A1.789,1.789,0,0,1,421.858-759.91Zm0-7.143a1.788,1.788,0,0,1-1.312-.546A1.788,1.788,0,0,1,420-768.91a1.788,1.788,0,0,1,.546-1.312,1.788,1.788,0,0,1,1.312-.545,1.788,1.788,0,0,1,1.312.545,1.788,1.788,0,0,1,.546,1.312,1.788,1.788,0,0,1-.546,1.312A1.788,1.788,0,0,1,421.858-767.053Z" transform="translate(-420.001 770.767)" fill="#072635"></path>
  </symbol>
  <symbol xmlns="http://www.w3.org/2000/svg" viewBox="0 0 42 42" id="PhoneIcon">
    <g id="PhoneIcon" transform="translate(-1235 -471)">
      <circle id="Ellipse_9" cx="21" cy="21" r="21" transform="translate(1235 471)" fill="#f6f7f8"></circle>
      <path id="call_FILL0_wght300_GRAD0_opsz24" d="M158.754-800a15.86,15.86,0,0,1-6.682-1.546,21.268,21.268,0,0,1-6.167-4.363,21.421,21.421,0,0,1-4.357-6.167A15.823,15.823,0,0,1,140-818.752a1.214,1.214,0,0,1,.353-.89,1.192,1.192,0,0,1,.882-.356h3.837a1.175,1.175,0,0,1,.786.291,1.279,1.279,0,0,1,.433.718l.674,3.462a1.978,1.978,0,0,1-.029.828,1.231,1.231,0,0,1-.357.581l-2.717,2.645a16.322,16.322,0,0,0,1.5,2.273,22.419,22.419,0,0,0,1.825,2.046,20.311,20.311,0,0,0,2.059,1.8,20.68,20.68,0,0,0,2.355,1.545l2.64-2.663a1.494,1.494,0,0,1,.669-.4,1.922,1.922,0,0,1,.816-.057l3.267.665a1.382,1.382,0,0,1,.727.455,1.16,1.16,0,0,1,.282.765v3.814a1.191,1.191,0,0,1-.356.882A1.214,1.214,0,0,1,158.754-800Zm-15.726-13.145,2.1-2.009a.21.21,0,0,0,.074-.124.275.275,0,0,0-.006-.147l-.511-2.629a.242.242,0,0,0-.079-.136.228.228,0,0,0-.147-.045h-2.516a.154.154,0,0,0-.113.045.153.153,0,0,0-.045.113,15.049,15.049,0,0,0,.395,2.45A14.978,14.978,0,0,0,143.028-813.144Zm10.235,10.167a12.1,12.1,0,0,0,2.44.834,13.842,13.842,0,0,0,2.374.343.153.153,0,0,0,.113-.045.153.153,0,0,0,.045-.113v-2.475a.228.228,0,0,0-.045-.147.242.242,0,0,0-.136-.079l-2.471-.5a.186.186,0,0,0-.119-.006.289.289,0,0,0-.107.074ZM143.028-813.144ZM153.263-802.976Z" transform="translate(1105.999 1301.999)" fill="#072635"></path>
    </g>
  </symbol>
  <symbol id="respiratory rate" xmlns="http://www.w3.org/2000/svg" xmlns:xlink="http://www.w3.org/1999/xlink" viewBox="0 0 96 96">
    <defs>
      <clipPath id="clip-path">
        <rect id="Rectangle_37" width="53.378" height="56.499" fill="none"></rect>
      </clipPath>
    </defs>
    <circle id="Ellipse_8" cx="48" cy="48" r="48" fill="#fff"></circle>
    <g id="Group_15" transform="translate(21.311 19.75)">
      <g id="Group_14" clip-path="url(#clip-path)">
        <path id="Path_19" d="M20.783,56.5,6.826,56.468a8.013,8.013,0,0,1-5.191-3.652c-2.027-3.294-2.17-8.5-.427-15.474,4.17-16.681,10.165-22.955,12.549-24.878a8.794,8.794,0,0,1,6.385-2.231l-.367,2.473.184-1.236-.168,1.238a6.431,6.431,0,0,0-4.465,1.7C13.138,16.175,7.62,22,3.634,37.947c-1.552,6.209-1.507,10.9.13,13.56A5.474,5.474,0,0,0,7.248,54H20.783a2.149,2.149,0,0,0,2.146-2.146V29.931h2.5V51.853A4.651,4.651,0,0,1,20.783,56.5" transform="translate(0 0)" fill="#072635"></path>
        <path id="Path_20" d="M46.415,56.5H32.6a4.651,4.651,0,0,1-4.646-4.646V29.931h2.5V51.853A2.149,2.149,0,0,0,32.6,54H46.13a5.472,5.472,0,0,0,3.483-2.492c1.638-2.661,1.684-7.35.131-13.56C45.758,22,40.239,16.175,38.051,14.41a6.479,6.479,0,0,0-4.449-1.7l-.367-2.473a8.805,8.805,0,0,1,6.386,2.231c2.384,1.923,8.379,8.2,12.549,24.878,1.743,6.974,1.6,12.181-.427,15.474a8.015,8.015,0,0,1-5.191,3.652Z" transform="translate(0 0)" fill="#072635"></path>
        <path id="Path_21" d="M20.767,26.415l-.429-2.463c.127-.026,3.514-.793,3.514-6.812V2.5h-.728V0h3.228V17.14c0,8.21-5.357,9.235-5.585,9.275" transform="translate(0 0)" fill="#072635"></path>
        <path id="Path_22" d="M32.774,26.415c-.229-.04-5.586-1.065-5.586-9.275V0h3.229V2.5h-.729V17.14c0,6.13,3.479,6.806,3.514,6.812Z" transform="translate(0 0)" fill="#072635"></path>
        <path id="Path_23" d="M21.255,31.084l-1.715-1.03c.1-.171,2.564-4.2,7.191-4.2s7.023,4.04,7.123,4.211l-1.731,1a6.721,6.721,0,0,0-5.392-3.214c-3.476,0-5.456,3.195-5.476,3.228" transform="translate(0 0)" fill="#072635"></path>
        <path id="Path_24" d="M21.739,16.348v33.9a2.476,2.476,0,0,1-2.477,2.476H8.487s-6.066.22-4.55-9.538,7.648-24.526,11.934-26.834,5.538-.659,5.868,0" transform="translate(0 0)" fill="#74cef5"></path>
        <path id="Path_25" d="M31.644,16.348v33.9a2.476,2.476,0,0,0,2.477,2.476H44.9s6.066.22,4.55-9.538S41.8,18.656,37.512,16.348s-5.538-.659-5.868,0" transform="translate(0 0)" fill="#74cef5"></path>
      </g>
    </g>
  </symbol>
  <symbol xmlns="http://www.w3.org/2000/svg" viewBox="0 0 17.995 18" id="search_FILL0_wght300_GRAD0_opsz24">
    <path id="search_FILL0_wght300_GRAD0_opsz24" d="M142.675-811.574a6.293,6.293,0,0,1-4.626-1.895,6.293,6.293,0,0,1-1.895-4.626,6.293,6.293,0,0,1,1.895-4.626,6.293,6.293,0,0,1,4.626-1.895,6.293,6.293,0,0,1,4.626,1.895,6.293,6.293,0,0,1,1.895,4.626,6.254,6.254,0,0,1-.383,2.182,6.1,6.1,0,0,1-1.023,1.808l6.135,6.135a.773.773,0,0,1,.227.557.754.754,0,0,1-.227.567.765.765,0,0,1-.562.232.765.765,0,0,1-.562-.232l-6.135-6.135a6.1,6.1,0,0,1-1.839,1.033,6.318,6.318,0,0,1-2.151.373Zm0-1.6a4.749,4.749,0,0,0,3.491-1.43,4.749,4.749,0,0,0,1.43-3.491,4.749,4.749,0,0,0-1.43-3.491,4.749,4.749,0,0,0-3.491-1.43,4.749,4.749,0,0,0-3.491,1.43,4.749,4.749,0,0,0-1.43,3.491,4.749,4.749,0,0,0,1.43,3.491A4.749,4.749,0,0,0,142.675-813.173Z" transform="translate(-136.155 824.614)" fill="#072635"></path>
  </symbol>
  <symbol xmlns="http://www.w3.org/2000/svg" viewBox="0 0 18.944 20" id="settings_FILL0_wght300_GRAD0_opsz24">
    <path id="settings_FILL0_wght300_GRAD0_opsz24" d="M128.365-840a1.334,1.334,0,0,1-.93-.357,1.481,1.481,0,0,1-.477-.88l-.257-1.97a4.826,4.826,0,0,1-.867-.4,5.593,5.593,0,0,1-.795-.547l-1.824.775a1.311,1.311,0,0,1-1,.042,1.439,1.439,0,0,1-.778-.64l-1.186-2.057a1.29,1.29,0,0,1-.16-.981,1.484,1.484,0,0,1,.538-.853l1.577-1.184q-.036-.235-.052-.472t-.015-.472q0-.225.015-.457t.052-.507l-1.577-1.184a1.462,1.462,0,0,1-.533-.858,1.317,1.317,0,0,1,.165-.986l1.176-2.026a1.475,1.475,0,0,1,.778-.635,1.3,1.3,0,0,1,1,.037l1.814.765a6.743,6.743,0,0,1,.813-.552,5.374,5.374,0,0,1,.849-.4l.267-1.97a1.48,1.48,0,0,1,.477-.88,1.334,1.334,0,0,1,.93-.357H130.7a1.334,1.334,0,0,1,.93.357,1.48,1.48,0,0,1,.477.88l.257,1.98a4.962,4.962,0,0,1,.857.4,7.079,7.079,0,0,1,.774.542l1.864-.765a1.3,1.3,0,0,1,1-.037,1.475,1.475,0,0,1,.778.635l1.176,2.036a1.29,1.29,0,0,1,.16.981,1.484,1.484,0,0,1-.538.853l-1.617,1.215a2.464,2.464,0,0,1,.062.477q.005.222.005.446t-.01.436a3.04,3.04,0,0,1-.073.507l1.587,1.194a1.509,1.509,0,0,1,.543.853,1.273,1.273,0,0,1-.155.981l-1.192,2.047a1.439,1.439,0,0,1-.783.64,1.323,1.323,0,0,1-1-.042l-1.8-.775a6.89,6.89,0,0,1-.8.552,4.806,4.806,0,0,1-.834.392l-.257,1.98a1.481,1.481,0,0,1-.477.88,1.334,1.334,0,0,1-.93.357Zm.113-1.579h2.069l.379-2.82a5.865,5.865,0,0,0,1.473-.6,6.5,6.5,0,0,0,1.286-1l2.615,1.1,1.036-1.789-2.283-1.721a4.308,4.308,0,0,0,.179-.8,6.6,6.6,0,0,0,.048-.794,6.438,6.438,0,0,0-.048-.794,4.115,4.115,0,0,0-.179-.781l2.3-1.741-1.036-1.79-2.646,1.115a5.607,5.607,0,0,0-1.266-1,5.444,5.444,0,0,0-1.493-.613l-.332-2.82h-2.089l-.348,2.81a5.5,5.5,0,0,0-1.488.583,6.275,6.275,0,0,0-1.3,1.012l-2.615-1.089-1.036,1.79,2.273,1.694a3.836,3.836,0,0,0-.184.779,6.615,6.615,0,0,0-.053.852,6.092,6.092,0,0,0,.053.806,4.6,4.6,0,0,0,.174.779l-2.263,1.721,1.036,1.789L125.347-846a5.9,5.9,0,0,0,1.281,1.008,5.951,5.951,0,0,0,1.508.6Zm1.065-5.263a3.045,3.045,0,0,0,2.236-.922A3.045,3.045,0,0,0,132.7-850a3.045,3.045,0,0,0-.922-2.236,3.045,3.045,0,0,0-2.236-.922,3.037,3.037,0,0,0-2.244.922,3.059,3.059,0,0,0-.914,2.236,3.058,3.058,0,0,0,.914,2.236A3.037,3.037,0,0,0,129.543-846.841ZM129.531-850Z" transform="translate(-120.059 859.999)" fill="#072635"></path>
  </symbol>
  <symbol id="temperature" xmlns="http://www.w3.org/2000/svg" xmlns:xlink="http://www.w3.org/1999/xlink" viewBox="0 0 96 96">
    <defs>
      <clipPath id="clip-path">
        <rect id="Rectangle_45" width="31.632" height="56" fill="none"></rect>
      </clipPath>
    </defs>
    <circle id="Ellipse_8" cx="48" cy="48" r="48" fill="#fff"></circle>
    <g id="Group_17" transform="translate(32 20)">
      <g id="Group_16" clip-path="url(#clip-path)">
        <path id="Path_26" d="M13.707,56A13.706,13.706,0,0,1,7.474,30.086V0H19.941V30.086A13.706,13.706,0,0,1,13.707,56M9.474,2V31.359l-.588.266a11.708,11.708,0,1,0,9.643,0l-.588-.266V2Z"></path>
        <rect id="Rectangle_38" width="5.025" height="44.411" transform="translate(11.195 3.921)" fill="#f05b66"></rect>
        <path id="Path_27" d="M23.3,42.529a9.6,9.6,0,1,1-9.6-9.6,9.6,9.6,0,0,1,9.6,9.6" fill="#f05b66"></path>
        <rect id="Rectangle_39" width="6.471" height="2" transform="translate(23.161 0.118)"></rect>
        <rect id="Rectangle_40" width="8.471" height="2" transform="translate(23.161 5.365)"></rect>
        <rect id="Rectangle_41" width="6.471" height="2" transform="translate(23.161 26.353)"></rect>
        <rect id="Rectangle_42" width="6.471" height="2" transform="translate(23.161 10.612)"></rect>
        <rect id="Rectangle_43" width="6.471" height="2" transform="translate(23.161 21.106)"></rect>
        <rect id="Rectangle_44" width="8.471" height="2" transform="translate(23.161 15.859)"></rect>
      </g>
    </g>
  </symbol>
  <symbol id="TestLogo" xmlns="http://www.w3.org/2000/svg" xmlns:xlink="http://www.w3.org/1999/xlink" viewBox="0 0 210.582 48">
    <defs>
      <clipPath id="clip-path">
        <rect id="Rectangle_17" width="30.422" height="13.998" fill="none"></rect>
      </clipPath>
    </defs>
    <g id="Icon">
      <path id="Path_3" d="M50.527,68.4l.049-15.694A3.644,3.644,0,0,0,49.55,50.09L37.19,40.26l.039,15.758a3.1,3.1,0,0,0,1.051,2.639l12.242,9.736Z" transform="translate(-18.847 -20.403)" fill="#006aac"></path>
      <path id="Path_4" d="M39.32,33.789,54.6,30.213a3.639,3.639,0,0,1,2.782.409l12.36,9.83L54.378,43.959a3.1,3.1,0,0,1-2.811-.434L39.325,33.789Z" transform="translate(-19.927 -15.254)" fill="#01f0d0"></path>
      <g id="Group_11" transform="translate(0 19.122)" opacity="0.45">
        <g id="Group_10">
          <g id="Group_6" clip-path="url(#clip-path)">
            <g id="Group_9" transform="translate(0 -0.01)">
              <path id="Path_5" d="M0,42.439l15.28-3.576a3.639,3.639,0,0,1,2.782.409l12.36,9.83L15.058,52.609a3.1,3.1,0,0,1-2.811-.434Z" transform="translate(0 -38.75)" fill="#6dc2ee"></path>
            </g>
          </g>
        </g>
      </g>
      <path id="Path_6" d="M50.107,28.143l.049-15.694A3.644,3.644,0,0,0,49.13,9.83L36.77,0l.039,15.758A3.089,3.089,0,0,0,37.865,18.4l12.247,9.741Z" transform="translate(-18.634)" fill="#0bd984"></path>
      <rect id="Rectangle_5" width="49.815" height="48" fill="none"></rect>
    </g>
    <g id="Text" transform="translate(62.607 15.27)">
      <path id="Path_3-2" d="M147.873,31.94V37.5h-5.564V54.446h-5.756V37.5H130.99V31.94h16.878Z" transform="translate(-130.99 -31.457)" fill="#072635"></path>
      <path id="Path_4-2" d="M167.419,54.511q.806,1.961,3.6,1.963a4.1,4.1,0,0,0,2.925-1.125l3.857,2.7a8.314,8.314,0,0,1-6.91,2.989,8.962,8.962,0,0,1-6.54-2.4,8.111,8.111,0,0,1-2.461-6.062,8.3,8.3,0,0,1,8.552-8.518,7.816,7.816,0,0,1,5.948,2.412,8.929,8.929,0,0,1,2.121,8.035H167.419Zm-.064-3.694h6.17a2.853,2.853,0,0,0-3.023-2.249,3.011,3.011,0,0,0-3.152,2.249Z" transform="translate(-146.65 -37.599)" fill="#072635"></path>
      <path id="Path_5-2" d="M207.537,61.047a8.485,8.485,0,1,1,0-16.967,8.483,8.483,0,0,1,4.326,1.125,7.861,7.861,0,0,1,3,3.023L210.3,50.862a2.951,2.951,0,0,0-2.8-1.573,3.019,3.019,0,0,0-2.249.917,3.558,3.558,0,0,0,0,4.725,3.027,3.027,0,0,0,2.249.917,2.87,2.87,0,0,0,2.8-1.608l4.562,2.634a7.836,7.836,0,0,1-3,3.053,8.483,8.483,0,0,1-4.326,1.125Z" transform="translate(-165.451 -37.609)" fill="#072635"></path>
      <path id="Path_6-2" d="M244.44,37.918A5.559,5.559,0,0,1,248.7,39.7a7.267,7.267,0,0,1,1.657,5.129v9.613h-5.337V45.508a2.526,2.526,0,0,0-.661-1.894,2.4,2.4,0,0,0-1.751-.641,2.5,2.5,0,0,0-1.943.755,3.115,3.115,0,0,0-.691,2.17V54.45H234.64V31.94h5.337v8.035a5.089,5.089,0,0,1,4.469-2.057Z" transform="translate(-183.518 -31.457)" fill="#072635"></path>
      <path id="Path_7" d="M275.219,71.608a3.26,3.26,0,0,1-2.4-.982,3.317,3.317,0,0,1,.015-4.725,3.283,3.283,0,0,1,2.377-.981,3.344,3.344,0,0,1,0,6.688Z" transform="translate(-202.37 -48.17)" fill="#0bd984"></path>
      <path id="Path_8" d="M298.374,54.427A11.431,11.431,0,0,1,286.64,42.694a11.746,11.746,0,0,1,17.391-10.289,10.8,10.8,0,0,1,4.084,3.891l-4.982,2.861a4.6,4.6,0,0,0-1.914-1.879,6.367,6.367,0,0,0-7.2,1,6.038,6.038,0,0,0-1.657,4.419,6.038,6.038,0,0,0,1.657,4.419,6.367,6.367,0,0,0,7.2,1,4.561,4.561,0,0,0,1.914-1.914l4.982,2.9A10.633,10.633,0,0,1,304.051,53a11.549,11.549,0,0,1-5.672,1.43Z" transform="translate(-209.871 -30.96)" fill="#072635"></path>
      <path id="Path_9" d="M345.028,44.524h5.337V60.6h-5.337v-1.48a5.663,5.663,0,0,1-4.562,1.928,6.937,6.937,0,0,1-5.386-2.427,8.755,8.755,0,0,1-2.17-6.057,8.755,8.755,0,0,1,2.17-6.057,6.93,6.93,0,0,1,5.386-2.427,5.656,5.656,0,0,1,4.562,1.928v-1.48ZM339.208,55.1a3.58,3.58,0,0,0,4.883,0,3.927,3.927,0,0,0,0-5.08,3.58,3.58,0,0,0-4.883,0,3.927,3.927,0,0,0,0,5.08Z" transform="translate(-233.319 -37.609)" fill="#072635"></path>
      <path id="Path_10" d="M379.9,47.639a4.171,4.171,0,0,1,1.8-2.441,5.481,5.481,0,0,1,3.023-.868v5.914a4.628,4.628,0,0,0-3.329.676,3.453,3.453,0,0,0-1.494,3.152v6.654H374.56V44.651H379.9Z" transform="translate(-254.427 -37.736)" fill="#072635"></path>
      <path id="Path_11" d="M402.379,54.511q.806,1.961,3.6,1.963A4.1,4.1,0,0,0,408.9,55.35l3.857,2.7a8.314,8.314,0,0,1-6.91,2.989,8.962,8.962,0,0,1-6.54-2.4,8.111,8.111,0,0,1-2.461-6.062A8.3,8.3,0,0,1,405.4,44.06a7.823,7.823,0,0,1,5.948,2.412,8.929,8.929,0,0,1,2.121,8.035H402.384Zm-.064-3.694h6.17a2.853,2.853,0,0,0-3.023-2.249,3.011,3.011,0,0,0-3.152,2.249Z" transform="translate(-265.723 -37.599)" fill="#072635"></path>
    </g>
  </symbol>
  
  

</svg>